# xmcd
# 
# Track frame offsets:
#     150
#     13295
#     26355
#     40425
#     53958
#     80783
#     95010
#     112584
#     124272
#     135705
#     147458
#     161201
#     174831
#     188868
#     202883
#     215296
#     226798
#     241561
#     254983
#     269186
#     284421
#     297216
#     308316
#     320730
#     337484
# 
# Disc length: 4672
# 
# Revision: 2
# Processed by: cddbd v1.5.2PL0 Copyright (c) Steve Scherf et al.
# Submitted via: fre:ac v1.0.31
# 
DISCID=80123e19
DTITLE=Motown - Complete Motown Singles - Volume 11A - Disc 57
DYEAR=2008
DGENRE=R&B
TTITLE0=Stevie Wonder - We Can Work It Out (mono)
TTITLE1=Stevie Wonder - Never Dreamed You'd Leave In Summer (mono)
TTITLE2=Smokey Robinson and The Miracles - I Don't Blame You At All (mono)
TTITLE3=Smokey Robinson and The Miracles - That Girl (mono)
TTITLE4=Eddie Kendricks - This Used To Be The Home Of Johnnie Mae (mono)
TTITLE5=Eddie Kendricks - It's So Hard For Me To Say Goodbye (mono)
TTITLE6=Eddie Kendricks - This Used To Be The Home Of Johnnie Mae (short promo version) (mono)
TTITLE7=Sammy Davis, Jr. - In My Own Lifetime (mono)
TTITLE8=Sammy Davis, Jr. - I'll Begin Again (mono)
TTITLE9=Sammy Davis, Jr. - In My Own Lifetime (stereo promo version)
TTITLE10=The Jackson 5 - Never Can Say Goodbye (mono)
TTITLE11=The Jackson 5 - She's Good (mono)
TTITLE12=R. Dean Taylor - Gotta See Jane (mono)
TTITLE13=R. Dean Taylor - Gotta See Jane (stereo promo version)
TTITLE14=Gordon Staples and The Motown Strings - Strung Out (mono)
TTITLE15=Gordon Staples and The Motown Strings - Sounds Of The Zodiac (mono)
TTITLE16=Gordon Staples and The Motown Strings - Strung Out (stereo promo version)
TTITLE17=Gordon Staples and The Motown Strings - Strung Out (long promo version) (mono)
TTITLE18=Edwin Starr - Funky Music Sho Nuff Turns Me On (mono)
TTITLE19=Edwin Starr - Cloud Nine (mono)
TTITLE20=David and Jimmy Ruffin - When My Love Hand Comes Down (mono)
TTITLE21=David and Jimmy Ruffin - Steppin' On A Dream (mono)
TTITLE22=Letta - I Won't Weep No More (mono)
TTITLE23=Letta - You Touched Me (mono)
TTITLE24=Stevie Wonder - Never Dreamed You'd Leave In Summer (stereo promo version)
EXTD=
EXTT0=
EXTT1=
EXTT2=
EXTT3=
EXTT4=
EXTT5=
EXTT6=
EXTT7=
EXTT8=
EXTT9=
EXTT10=
EXTT11=
EXTT12=
EXTT13=
EXTT14=
EXTT15=
EXTT16=
EXTT17=
EXTT18=
EXTT19=
EXTT20=
EXTT21=
EXTT22=
EXTT23=
EXTT24=
PLAYORDER=
